ModelForces
version=1
nRows=4
nColumns=157
inDegrees=no

This file contains the forces exerted on a model during a simulation.

A force is a generalized force, meaning that it can be either a force (N) or a torque (Nm).

Units are S.I. units (second, meters, Newtons, ...)
Angles are in degrees.

endheader
time	glut_med1_r	glut_med2_r	glut_med3_r	glut_min1_r	glut_min2_r	glut_min3_r	semimem_r	semiten_r	bifemlh_r	bifemsh_r	sar_r	add_long_r	add_brev_r	add_mag1_r	add_mag2_r	add_mag3_r	tfl_r	pect_r	grac_r	glut_max1_r	glut_max2_r	glut_max3_r	iliacus_r	psoas_r	quad_fem_r	gem_r	peri_r	rect_fem_r	vas_med_r	vas_int_r	vas_lat_r	med_gas_r	lat_gas_r	soleus_r	tib_post_r	flex_dig_r	flex_hal_r	tib_ant_r	per_brev_r	per_long_r	per_tert_r	ext_dig_r	ext_hal_r	glut_med1_l	glut_med2_l	glut_med3_l	glut_min1_l	glut_min2_l	glut_min3_l	semimem_l	semiten_l	bifemlh_l	bifemsh_l	sar_l	add_long_l	add_brev_l	add_mag1_l	add_mag2_l	add_mag3_l	tfl_l	pect_l	grac_l	glut_max1_l	glut_max2_l	glut_max3_l	iliacus_l	psoas_l	quad_fem_l	gem_l	peri_l	rect_fem_l	vas_med_l	vas_int_l	vas_lat_l	med_gas_l	lat_gas_l	soleus_l	tib_post_l	flex_dig_l	flex_hal_l	tib_ant_l	per_brev_l	per_long_l	per_tert_l	ext_dig_l	ext_hal_l	ercspn_r	ercspn_l	intobl_r	intobl_l	extobl_r	extobl_l	femur_lat_meniscii_r.femur_lat_r.force.X	femur_lat_meniscii_r.femur_lat_r.force.Y	femur_lat_meniscii_r.femur_lat_r.force.Z	femur_lat_meniscii_r.femur_lat_r.torque.X	femur_lat_meniscii_r.femur_lat_r.torque.Y	femur_lat_meniscii_r.femur_lat_r.torque.Z	femur_lat_meniscii_r.meniscus_lat_r.force.X	femur_lat_meniscii_r.meniscus_lat_r.force.Y	femur_lat_meniscii_r.meniscus_lat_r.force.Z	femur_lat_meniscii_r.meniscus_lat_r.torque.X	femur_lat_meniscii_r.meniscus_lat_r.torque.Y	femur_lat_meniscii_r.meniscus_lat_r.torque.Z	femur_med_meniscii_r.femur_med_r.force.X	femur_med_meniscii_r.femur_med_r.force.Y	femur_med_meniscii_r.femur_med_r.force.Z	femur_med_meniscii_r.femur_med_r.torque.X	femur_med_meniscii_r.femur_med_r.torque.Y	femur_med_meniscii_r.femur_med_r.torque.Z	femur_med_meniscii_r.meniscus_med_r.force.X	femur_med_meniscii_r.meniscus_med_r.force.Y	femur_med_meniscii_r.meniscus_med_r.force.Z	femur_med_meniscii_r.meniscus_med_r.torque.X	femur_med_meniscii_r.meniscus_med_r.torque.Y	femur_med_meniscii_r.meniscus_med_r.torque.Z	femur_med_tibia_r.tibia_upper_r.force.X	femur_med_tibia_r.tibia_upper_r.force.Y	femur_med_tibia_r.tibia_upper_r.force.Z	femur_med_tibia_r.tibia_upper_r.torque.X	femur_med_tibia_r.tibia_upper_r.torque.Y	femur_med_tibia_r.tibia_upper_r.torque.Z	femur_med_tibia_r.femur_med_r.force.X	femur_med_tibia_r.femur_med_r.force.Y	femur_med_tibia_r.femur_med_r.force.Z	femur_med_tibia_r.femur_med_r.torque.X	femur_med_tibia_r.femur_med_r.torque.Y	femur_med_tibia_r.femur_med_r.torque.Z	femur_lat_tibia_r.tibia_upper_r.force.X	femur_lat_tibia_r.tibia_upper_r.force.Y	femur_lat_tibia_r.tibia_upper_r.force.Z	femur_lat_tibia_r.tibia_upper_r.torque.X	femur_lat_tibia_r.tibia_upper_r.torque.Y	femur_lat_tibia_r.tibia_upper_r.torque.Z	femur_lat_tibia_r.femur_lat_r.force.X	femur_lat_tibia_r.femur_lat_r.force.Y	femur_lat_tibia_r.femur_lat_r.force.Z	femur_lat_tibia_r.femur_lat_r.torque.X	femur_lat_tibia_r.femur_lat_r.torque.Y	femur_lat_tibia_r.femur_lat_r.torque.Z	aACL_R	pACL_R	aPCL_R	pPCL_R	aMCL_R	mMCL_R	pMCL_R	aLCL_R	mLCL_R	pLCL_R	ground_prescribedForce_fx	ground_prescribedForce_fy	ground_prescribedForce_fz	ground_prescribedForce_px	ground_prescribedForce_py	ground_prescribedForce_pz
      0.43680892	      7.65946605	      5.74256620	      6.14796515	      2.69344424	      3.21627672	      3.23981527	      8.79819134	      4.11106125	      8.02701345	      7.42896331	      1.52440842	      5.69027626	      4.19431478	      2.95820534	      2.48753600	      4.04835897	      4.28332232	      2.26795421	      1.56420902	      3.70560078	      5.63149857	      4.20481198	     22.78689298	     13.12351568	      3.67477317	      2.87683641	      4.17951344	     10.87665835	      6.62351530	      6.84067519	      8.65955648	      4.31138658	      2.21424761	      8.44805824	     12.03461238	      1.98502308	      2.62769945	     14.91530777	      3.32148225	      6.55261419	     10.20806442	      9.85208874	      2.24640439	      7.65946605	      5.74256620	      6.14796515	      2.69344424	      3.21627672	      3.23981527	      8.90762324	      4.14297997	      7.81802672	      7.31178237	      1.53937638	      5.69027626	      4.19431478	      2.95820534	      2.48753600	      4.04835897	      4.13468914	      2.26795421	      1.57919031	      3.70560078	      5.63149857	      4.20481198	     22.78689298	     13.12351568	      3.67477317	      2.87683641	      4.17951344	     10.85114674	      6.68412053	      7.66926066	      8.24594153	     14.35057040	      6.66359524	     31.76545250	     42.62538225	      2.82642858	      2.98802617	      8.59025219	      4.41696380	     12.64606984	      2.03018590	      5.36477572	      1.70308399	     25.33187728	     25.33187728	      9.12771924	      9.12771924	     26.91933369	     26.91933369	     35.83260995	     70.05178621	     10.05836682	     -5.92492033	      0.88718088	     14.94467671	    -35.83260995	    -70.05178621	    -10.05836682	      2.36943181	     -1.05264924	     -1.12595342	     46.91793547	     78.11645250	      5.97820619	     -0.77895310	     -1.04964909	     19.83719938	    -46.91793547	    -78.11645250	     -5.97820619	     -1.16700502	      0.83384103	     -1.74506700	      0.00000000	      0.00000000	      0.00000000	      0.00000000	      0.00000000	      0.00000000	      0.00000000	      0.00000000	      0.00000000	      0.00000000	      0.00000000	      0.00000000	      0.00000000	      0.00000000	      0.00000000	      0.00000000	      0.00000000	      0.00000000	      0.00000000	      0.00000000	      0.00000000	      0.00000000	      0.00000000	      0.00000000	     19.56315120	     37.90042168	      0.00000000	      0.00000000	      0.00000000	      3.04936303	     15.92202551	      3.66924199	      0.00000000	      5.92895350	    110.00000000	      0.00000000	      0.00000000	      0.03000000	     -0.03000000	      0.00000000
      0.44092561	      7.65357658	      5.73851111	      6.14356991	      2.69162296	      3.21430611	      3.23732924	      8.78424267	      4.11324653	      8.03797139	      7.46811547	      1.63507137	      5.68621120	      4.19150443	      2.95613161	      2.48575064	      4.04514166	      4.29209952	      2.26641088	      1.57545437	      3.70298599	      5.62751273	      4.20178142	     22.77953797	     13.11523965	      3.67223424	      2.87564672	      4.17484185	     10.87198354	      6.64669564	      6.86586750	      8.68069166	      4.32485523	      2.22428035	      8.44766369	     12.00777884	      2.00590376	      2.57228307	     14.98428976	      3.34798107	      6.59642522	     10.24116400	      9.80366357	      2.23729914	      7.65357658	      5.73851111	      6.14356991	      2.69162296	      3.21430611	      3.23732924	      8.89906258	      4.13982477	      7.81089613	      7.30672746	      1.53834023	      5.68621120	      4.19150443	      2.95613161	      2.48575064	      4.04514166	      4.13269859	      2.26641088	      1.57810890	      3.70298599	      5.62751273	      4.20178142	     22.77953797	     13.11523965	      3.67223424	      2.87564672	      4.17484185	     10.84143932	      6.67929201	      7.66361361	      8.23990020	     14.33050435	      6.65426501	     31.73000868	     42.61142815	      2.82152031	      2.98415107	      8.58294339	      4.41259891	     12.63576285	      2.02890240	      5.36013796	      1.70171974	     25.31470912	     25.31470912	      9.12098295	      9.12098295	     26.91328267	     26.91328267	     35.65100538	     69.58163964	      9.92862140	     -5.85960043	      0.88291082	     14.86889901	    -35.65100538	    -69.58163964	     -9.92862140	      2.35204074	     -1.04755380	     -1.12034801	     48.16195237	     80.24542207	      6.18464930	     -0.81906553	     -1.07797856	     20.36624190	    -48.16195237	    -80.24542207	     -6.18464930	     -1.19660649	      0.85639838	     -1.79453488	      0.00000000	      0.00000000	      0.00000000	      0.00000000	      0.00000000	      0.00000000	      0.00000000	      0.00000000	      0.00000000	      0.00000000	      0.00000000	      0.00000000	      0.00000000	      0.00000000	      0.00000000	      0.00000000	      0.00000000	      0.00000000	      0.00000000	      0.00000000	      0.00000000	      0.00000000	      0.00000000	      0.00000000	     19.38966838	     37.82248177	      0.00000000	      0.00000000	      0.00000000	      2.32381036	     15.17774755	      2.72730385	      0.00000000	      4.99434069	    110.00000000	      0.00000000	      0.00000000	      0.03000000	     -0.03000000	      0.00000000
      0.44410131	      7.64924238	      5.73552676	      6.14033525	      2.69028254	      3.21285582	      3.23549972	      8.75352010	      4.10213541	      8.02218669	      7.39984152	      1.52559621	      5.68321954	      4.18943595	      2.95460544	      2.48443672	      4.04277399	      4.29290541	      2.26527504	      1.56038544	      3.70106165	      5.62457937	      4.19955112	     22.77412516	     13.10914931	      3.67036568	      2.87477122	      4.17140094	     10.84064597	      6.59656106	      6.81793201	      8.62872229	      4.30164179	      2.21508640	      8.41341047	     11.97131395	      2.02977860	      2.53463364	     15.04466107	      3.37146013	      6.63433902	     10.28819840	      9.74924427	      2.22754602	      7.64924238	      5.73552676	      6.14033525	      2.69028254	      3.21285582	      3.23549972	      8.89276158	      4.13750279	      7.80564816	      7.30300725	      1.53757763	      5.68321954	      4.18943595	      2.95460544	      2.48443672	      4.04277399	      4.13123376	      2.26527504	      1.57731302	      3.70106165	      5.62457937	      4.19955112	     22.77412516	     13.10914931	      3.67036568	      2.87477122	      4.17140094	     10.83429500	      6.67573855	      7.65945782	      8.23545426	     14.31569272	      6.64737787	     31.70390332	     42.60115451	      2.81784176	      2.98126480	      8.57756460	      4.40938584	     12.62816602	      2.02795785	      5.35676718	      1.70072932	     25.30207377	     25.30207377	      9.11602548	      9.11602548	     26.90882952	     26.90882952	     34.39508496	     67.23461349	      9.64679577	     -5.68483961	      0.85238596	     14.34477864	    -34.39508496	    -67.23461349	     -9.64679577	      2.27529674	     -1.01130188	     -1.08066791	     47.76727227	     80.03464944	      6.18508149	     -0.82358898	     -1.07001603	     20.20388929	    -47.76727227	    -80.03464944	     -6.18508149	     -1.19303482	      0.85014901	     -1.78447192	      0.00000000	      0.00000000	      0.00000000	      0.00000000	      0.00000000	      0.00000000	      0.00000000	      0.00000000	      0.00000000	      0.00000000	      0.00000000	      0.00000000	      0.00000000	      0.00000000	      0.00000000	      0.00000000	      0.00000000	      0.00000000	      0.00000000	      0.00000000	      0.00000000	      0.00000000	      0.00000000	      0.00000000	     19.70327235	     38.19242026	      0.00000000	      0.00000000	      0.00000000	      3.13613735	     15.94047727	      3.89531160	      0.00000000	      6.16007228	    110.00000000	      0.00000000	      0.00000000	      0.03000000	     -0.03000000	      0.00000000
      0.44727702	      7.64508222	      5.73266216	      6.13723040	      2.68899589	      3.21146371	      3.23374365	      8.75184963	      4.10639071	      8.02656057	      7.43380211	      1.56100116	      5.68034793	      4.18745049	      2.95314051	      2.48317554	      4.04050142	      4.29906268	      2.26418476	      1.56960898	      3.69921453	      5.62176373	      4.19741034	     22.76892964	     13.10330366	      3.66857208	      2.87393090	      4.16809578	     10.83997505	      6.62653796	      6.84624505	      8.65229948	      4.31513704	      2.22151913	      8.41503430	     11.92896402	      2.06083204	      2.50260809	     15.09191972	      3.39833384	      6.67773522	     10.31527532	      9.67252247	      2.21424449	      7.64508222	      5.73266216	      6.13723040	      2.68899589	      3.21146371	      3.23374365	      8.88671279	      4.13527403	      7.80061060	      7.29943628	      1.53684562	      5.68034793	      4.18745049	      2.95314051	      2.48317554	      4.04050142	      4.12982779	      2.26418476	      1.57654906	      3.69921453	      5.62176373	      4.19741034	     22.76892964	     13.10330366	      3.66857208	      2.87393090	      4.16809578	     10.82743726	      6.67232775	      7.65546891	      8.23118686	     14.30143918	      6.64075017	     31.67882887	     42.59128978	      2.81425089	      2.97846277	      8.57240175	      4.40630112	     12.62086471	      2.02705124	      5.35357080	      1.69979121	     25.28994519	     25.28994519	      9.11126702	      9.11126702	     26.90455514	     26.90455514	     34.39032732	     67.13150655	      9.57099796	     -5.65111603	      0.85250656	     14.34279720	    -34.39032732	    -67.13150655	     -9.57099796	      2.27047176	     -1.01145904	     -1.08062920	     48.70377792	     81.82322832	      6.29073371	     -0.82882471	     -1.09114606	     20.60140110	    -48.70377792	    -81.82322832	     -6.29073371	     -1.22011906	      0.86686373	     -1.82095162	      0.00000000	      0.00000000	      0.00000000	      0.00000000	      0.00000000	      0.00000000	      0.00000000	      0.00000000	      0.00000000	      0.00000000	      0.00000000	      0.00000000	      0.00000000	      0.00000000	      0.00000000	      0.00000000	      0.00000000	      0.00000000	      0.00000000	      0.00000000	      0.00000000	      0.00000000	      0.00000000	      0.00000000	     19.55086903	     38.11784600	      0.00000000	      0.00000000	      0.00000000	      2.50673771	     15.29974083	      2.98394277	      0.00000000	      5.25660387	    110.00000000	      0.00000000	      0.00000000	      0.03000000	     -0.03000000	      0.00000000
